# xmcd CD database file generated by LOLA_Freedb v0.9beta0
# 
# Track frame offsets:
#      150
#      16934
#      38332
#      66976
#      87126
#      107257
#      126011
#      146145
#      167064
#      193479
#      214013
#      240193
# 
# Disc length: 3521 seconds
# 
# Revision: 0 
# Processed by: cddbd v1.5.2PL0 Copyright (c) Steve Scherf et al.
# Submitted via: LOLA_Freedb v0.9beta0
# 
DISCID=990dbf0c
DTITLE=Various Artist - I Love You !
DYEAR=1900
DGENRE=
TTITLE0=Berthold Matschat - The Stars in E
TTITLE1=Georg Gabler - Quietude
TTITLE2=Nappo Bernatzky - Night Moves
TTITLE3=Guido Jöris - Good Old Times
TTITLE4=Tato Gomez - One Night in Paris
TTITLE5=Velis, Gomez - Mun Coburo
TTITLE6=Ulla van Daelen - Dancin with Satie
TTITLE7=Mario Berger and Tato Gomez - Hawaii
TTITLE8=Georg Gabler and Tato Gomez - Girl from Iguazu
TTITLE9=Bibi and Tato Gomez - Haiana Leya
TTITLE10=Guido Jöris - By the Sea
TTITLE11=Nappo Bernatzky - Sweet Surrender
EXTD=
EXTT0=
EXTT1=
EXTT2=
EXTT3=
EXTT4=
EXTT5=
EXTT6=
EXTT7=
EXTT8=
EXTT9=
EXTT10=
EXTT11=
PLAYORDER=
